<?xml version="1.0" encoding="utf-8"?>
<!-- Generator: Adobe Illustrator 23.1.0, SVG Export Plug-In . SVG Version: 6.00 Build 0)  -->
<svg version="1.1" id="Layer_1" xmlns="http://www.w3.org/2000/svg" xmlns:xlink="http://www.w3.org/1999/xlink" x="0px" y="0px"
	 viewBox="0 0 335 285.8" style="enable-background:new 0 0 335 285.8;" xml:space="preserve">
<image style="overflow:visible;enable-background:new    ;" width="82" height="142" id="Layer_9_copy" xlink:href="45D8197E.png" >
</image>
<image style="overflow:visible;enable-background:new    ;" width="82" height="142" id="Layer_9_copy_1_" xlink:href="45D81982.png"  transform="matrix(1 0 0 1 84.3226 0)">
</image>
<image style="overflow:visible;enable-background:new    ;" width="82" height="142" id="Layer_9_copy_3_" xlink:href="45D81985.png"  transform="matrix(1 0 0 1 168.6452 0)">
</image>
<image style="overflow:visible;enable-background:new    ;" width="82" height="142" id="Layer_9_copy_2_" xlink:href="45D81986.png"  transform="matrix(1 0 0 1 252.9677 0)">
</image>
<image style="overflow:visible;enable-background:new    ;" width="82" height="142" id="Layer_9_copy_7_" xlink:href="45D81984.png"  transform="matrix(1 0 0 1 0 143.8065)">
</image>
<image style="overflow:visible;enable-background:new    ;" width="82" height="142" id="Layer_9_copy_6_" xlink:href="45D81983.png"  transform="matrix(1 0 0 1 84.3226 143.8065)">
</image>
<image style="overflow:visible;enable-background:new    ;" width="82" height="142" id="Layer_9_copy_5_" xlink:href="45D8198D.png"  transform="matrix(1 0 0 1 168.6452 143.8065)">
</image>
<image style="overflow:visible;enable-background:new    ;" width="82" height="142" id="Layer_9_copy_4_" xlink:href="45D8198E.png"  transform="matrix(1 0 0 1 252.9677 143.8065)">
</image>
</svg>
